<svg width="51" height="45" viewBox="0 0 51 45" fill="none" xmlns="http://www.w3.org/2000/svg">
<path fill-rule="evenodd" clip-rule="evenodd" d="M14.2754 35.8984V38.6986V38.7022C14.2946 39.2564 18.6255 39.7051 23.9651 39.7051C29.3046 39.7051 33.6355 39.2564 33.6547 38.7022C33.6548 38.701 33.6547 38.6998 33.6547 38.6986V35.8984C33.6368 36.4527 29.3054 36.9013 23.9651 36.9013C18.6247 36.9013 14.2933 36.4527 14.2754 35.8984Z" fill="#658354"/>
<path fill-rule="evenodd" clip-rule="evenodd" d="M14.2754 31.8149V34.6152V34.6187C14.2946 35.1729 18.6255 35.6216 23.9651 35.6216C29.3046 35.6216 33.6355 35.1729 33.6547 34.6187C33.6548 34.6175 33.6547 34.6164 33.6547 34.6152V31.8149C33.6355 32.3691 29.3046 32.8178 23.9651 32.8178C18.6255 32.8178 14.2946 32.3691 14.2754 31.8149Z" fill="#658354"/>
<path fill-rule="evenodd" clip-rule="evenodd" d="M14.3243 27.7323V30.5325V30.536C14.3435 31.0901 18.6746 31.539 24.0142 31.539C29.3537 31.539 33.6845 31.0901 33.7037 30.536C33.7037 30.5347 33.7037 30.5337 33.7037 30.5325V27.7323H33.7014C33.6556 27.9961 32.6148 28.2474 30.8029 28.4322C28.991 28.6171 26.5529 28.7206 24.0133 28.7206C21.4738 28.7206 19.0357 28.6171 17.2238 28.4322C15.4119 28.2474 14.3711 27.9961 14.3252 27.7323H14.3243Z" fill="#658354"/>
<path fill-rule="evenodd" clip-rule="evenodd" d="M22.8842 23.3368C21.7133 22.1481 20.5843 21.5538 19.3716 21.3917C18.1589 21.2296 17.1589 21.9056 14.8136 19.9599C12.7947 18.2849 11.4035 18.1496 11.2942 18.1496C11.3241 18.1737 14.2554 17.6045 17.0717 18.1228C20.3576 18.7276 21.1279 19.9329 20.7934 20.0139C20.6235 20.0551 19.6255 19.5968 18.5974 19.2846C17.6004 18.9818 16.5699 18.8252 16.5699 18.8252C19.0739 19.8538 21.5616 20.8919 23.3023 22.3643C23.668 22.3891 24.5096 20.1077 22.9258 18.7928C22.0059 17.5231 20.7432 16.583 19.9905 16.583C19.2378 16.583 17.4156 16.8077 16.4026 15.1782C15.4079 13.5781 13.0119 11.0921 11.9842 10.6696C12.6378 10.4585 18.6182 11.0991 20.417 12.8548C22.2311 14.6255 23.0096 15.8535 22.3824 15.9346C22.0935 15.9719 21.2011 14.7955 20.1234 14.0648C18.8129 13.1763 17.0782 12.545 17.0782 12.545C19.9041 13.6698 23.2306 17.4055 23.7203 18.2795C24.3058 18.4146 24.6823 14.7459 25.2677 13.4762C25.4729 12.5135 27.5274 8.82348 28.613 7.85698C28.613 7.85698 27.0115 9.20403 25.8744 10.6518C25.0715 11.6742 24.691 12.9648 24.4314 12.9089C23.8041 12.7738 22.5998 11.2908 23.6871 9.77792C24.7743 8.26505 26.3103 7.61482 27.0658 6.64129C27.8017 5.69302 28.0818 4.05054 28.0818 4.05054C28.0818 4.05054 31.9583 6.91144 31.7074 9.36985C31.4565 11.8282 29.9093 12.9359 28.4457 13.2601C26.9822 13.5843 26.5542 13.8286 25.8113 14.935C25.0457 16.0754 25.0275 19.8527 25.385 19.8816C28.1108 17.7153 30.0426 16.5367 33.5968 15.5866C32.4637 15.8447 31.7048 16.0022 30.1571 16.3769C27.8911 16.9255 26.8549 18.1488 26.9404 17.7446C27.0729 17.1175 27.9885 15.7073 30.0933 15.1728C33.5722 14.2895 40.447 14.7729 40.447 14.7729C40.447 14.7729 37.8742 15.1381 36.0563 16.637C34.7795 17.6897 33.9571 18.5228 31.2976 18.7686C29.1865 18.9637 27.8185 19.0954 26.7731 19.6357C25.7277 20.176 25.5752 22.2187 26.2442 22.4078C26.5761 22.5016 27.76 22.3259 29.1719 21.5853C30.7191 20.7738 32.251 20.4623 32.251 20.4623C32.251 20.4623 31.1879 20.4305 30.204 20.7076C29.1944 20.9918 28.2605 21.4331 28.0276 21.3647C27.5676 21.2296 28.613 20.2571 30.662 20.0139C32.711 19.7708 38.2264 19.813 38.2264 19.813C35.6741 20.1219 31.8939 22.3967 30.2438 22.9316C28.226 23.5857 28.0196 22.9756 27.024 23.2017C25.4842 23.5515 25.0559 27.3674 25.5604 27.3891C25.5604 27.3891 22.6751 28.1726 22.9678 27.3081C24.0282 25.4344 23.5617 24.0177 22.8842 23.3368Z" fill="#658354"/>
</svg>
