<svg width="70" height="85" viewBox="0 0 70 85" fill="none" xmlns="http://www.w3.org/2000/svg">
<path d="M58.2407 26.8314C58.2407 20.4651 55.9736 14.3595 51.9381 9.85784C47.9026 5.35616 42.4292 2.82715 36.7222 2.82715C31.0151 2.82715 25.5418 5.35616 21.5063 9.85784C17.4707 14.3595 15.2036 20.4651 15.2036 26.8314C15.2036 54.8364 4.44434 62.8379 4.44434 62.8379H69C69 62.8379 58.2407 54.8364 58.2407 26.8314Z" stroke="#658354" stroke-width="2" stroke-linecap="round" stroke-linejoin="round"/>
<path d="M42.9266 78.8406C42.2961 80.0531 41.3911 81.0596 40.3022 81.7592C39.2133 82.4589 37.9787 82.8271 36.7221 82.8271C35.4655 82.8271 34.2309 82.4589 33.142 81.7592C32.0531 81.0596 31.1481 80.0531 30.5176 78.8406" stroke="#658354" stroke-width="2" stroke-linecap="round" stroke-linejoin="round"/>
<path d="M55.2407 27.8314C55.2407 21.4651 52.9736 15.3595 48.9381 10.8578C44.9026 6.35616 39.4292 3.82715 33.7222 3.82715C28.0151 3.82715 22.5418 6.35616 18.5063 10.8578C14.4707 15.3595 12.2036 21.4651 12.2036 27.8314C12.2036 55.8364 1.44434 63.8379 1.44434 63.8379H66C66 63.8379 55.2407 55.8364 55.2407 27.8314Z" stroke="#658354" stroke-width="2" stroke-linecap="round" stroke-linejoin="round"/>
<path d="M39.9266 79.8406C39.2961 81.0531 38.3911 82.0596 37.3022 82.7592C36.2133 83.4589 34.9787 83.8271 33.7221 83.8271C32.4655 83.8271 31.2309 83.4589 30.142 82.7592C29.0531 82.0596 28.1481 81.0531 27.5176 79.8406" stroke="#658354" stroke-width="2" stroke-linecap="round" stroke-linejoin="round"/>
<path d="M56.2407 25.8314C56.2407 19.4651 53.9736 13.3595 49.9381 8.85784C45.9026 4.35616 40.4292 1.82715 34.7222 1.82715C29.0151 1.82715 23.5418 4.35616 19.5063 8.85784C15.4707 13.3595 13.2036 19.4651 13.2036 25.8314C13.2036 53.8364 2.44434 61.8379 2.44434 61.8379H67C67 61.8379 56.2407 53.8364 56.2407 25.8314Z" stroke="#658354" stroke-width="2" stroke-linecap="round" stroke-linejoin="round"/>
<path d="M40.9266 77.8406C40.2961 79.0531 39.3911 80.0596 38.3022 80.7592C37.2133 81.4589 35.9787 81.8271 34.7221 81.8271C33.4655 81.8271 32.2309 81.4589 31.142 80.7592C30.0531 80.0596 29.1481 79.0531 28.5176 77.8406" stroke="#658354" stroke-width="2" stroke-linecap="round" stroke-linejoin="round"/>
</svg>
