<svg width="80" height="65" viewBox="0 0 80 65" fill="none" xmlns="http://www.w3.org/2000/svg">
<path d="M40 40.625C45.5228 40.625 50 36.9873 50 32.5C50 28.0127 45.5228 24.375 40 24.375C34.4772 24.375 30 28.0127 30 32.5C30 36.9873 34.4772 40.625 40 40.625Z" stroke="#658354" stroke-width="2" stroke-linecap="round" stroke-linejoin="round"/>
<path d="M64.6666 40.6249C64.2229 41.4418 64.0906 42.3479 64.2866 43.2265C64.4827 44.1051 64.9982 44.9158 65.7666 45.5541L65.9667 45.7166C66.5865 46.2196 67.0782 46.817 67.4137 47.4746C67.7492 48.1322 67.9219 48.837 67.9219 49.5489C67.9219 50.2607 67.7492 50.9656 67.4137 51.6231C67.0782 52.2807 66.5865 52.8781 65.9667 53.3812C65.3475 53.8848 64.6122 54.2843 63.8029 54.5569C62.9936 54.8295 62.1261 54.9698 61.25 54.9698C60.3739 54.9698 59.5064 54.8295 58.697 54.5569C57.8877 54.2843 57.1525 53.8848 56.5333 53.3812L56.3333 53.2187C55.5477 52.5943 54.5499 52.1755 53.4686 52.0162C52.3873 51.8569 51.272 51.9644 50.2666 52.3249C49.2808 52.6682 48.4399 53.2383 47.8477 53.9649C47.2554 54.6915 46.9376 55.543 46.9333 56.4145V56.8749C46.9333 58.3115 46.2309 59.6893 44.9807 60.7051C43.7304 61.7209 42.0348 62.2916 40.2666 62.2916C38.4985 62.2916 36.8028 61.7209 35.5526 60.7051C34.3024 59.6893 33.6 58.3115 33.6 56.8749V56.6312C33.5742 55.7347 33.217 54.8653 32.575 54.136C31.933 53.4066 31.0358 52.8511 30 52.5416C28.9946 52.1811 27.8793 52.0735 26.798 52.2328C25.7167 52.3921 24.7189 52.811 23.9333 53.4353L23.7333 53.5978C23.1142 54.1015 22.3789 54.501 21.5696 54.7736C20.7603 55.0462 19.8928 55.1865 19.0166 55.1865C18.1405 55.1865 17.273 55.0462 16.4637 54.7736C15.6544 54.501 14.9191 54.1015 14.3 53.5978C13.6801 53.0948 13.1884 52.4974 12.8529 51.8398C12.5174 51.1822 12.3447 50.4774 12.3447 49.7655C12.3447 49.0537 12.5174 48.3489 12.8529 47.6913C13.1884 47.0337 13.6801 46.4363 14.3 45.9332L14.5 45.7707C15.2684 45.1325 15.7839 44.3217 15.98 43.4432C16.1761 42.5646 16.0437 41.6585 15.6 40.8416C15.1774 40.0405 14.4758 39.3574 13.5815 38.8762C12.6872 38.395 11.6393 38.1367 10.5666 38.1333H9.99998C8.23187 38.1333 6.53618 37.5626 5.28593 36.5467C4.03569 35.5309 3.33331 34.1532 3.33331 32.7166C3.33331 31.28 4.03569 29.9022 5.28593 28.8864C6.53618 27.8706 8.23187 27.2999 9.99998 27.2999H10.3C11.4033 27.2789 12.4733 26.9888 13.371 26.4671C14.2686 25.9455 14.9524 25.2165 15.3333 24.3749C15.777 23.558 15.9094 22.6519 15.7133 21.7733C15.5173 20.8948 15.0018 20.084 14.2333 19.4458L14.0333 19.2833C13.4135 18.7802 12.9217 18.1828 12.5862 17.5252C12.2508 16.8676 12.0781 16.1628 12.0781 15.451C12.0781 14.7391 12.2508 14.0343 12.5862 13.3767C12.9217 12.7191 13.4135 12.1217 14.0333 11.6187C14.6525 11.115 15.3877 10.7155 16.197 10.4429C17.0064 10.1703 17.8739 10.03 18.75 10.03C19.6261 10.03 20.4936 10.1703 21.3029 10.4429C22.1122 10.7155 22.8475 11.115 23.4666 11.6187L23.6666 11.7812C24.4522 12.4055 25.45 12.8244 26.5314 12.9837C27.6127 13.143 28.7279 13.0354 29.7333 12.6749H30C30.9859 12.3316 31.8267 11.7615 32.419 11.0349C33.0112 10.3083 33.329 9.45684 33.3333 8.58534V8.12492C33.3333 6.68833 34.0357 5.31058 35.2859 4.29476C36.5362 3.27893 38.2319 2.70825 40 2.70825C41.7681 2.70825 43.4638 3.27893 44.714 4.29476C45.9643 5.31058 46.6666 6.68833 46.6666 8.12492V8.36867C46.6709 9.24017 46.9888 10.0916 47.581 10.8183C48.1733 11.5449 49.0141 12.1149 50 12.4583C51.0054 12.8188 52.1206 12.9263 53.2019 12.767C54.2833 12.6077 55.2811 12.1889 56.0666 11.5645L56.2666 11.402C56.8858 10.8984 57.6211 10.4989 58.4304 10.2263C59.2397 9.95367 60.1072 9.81337 60.9833 9.81337C61.8594 9.81337 62.7269 9.95367 63.5363 10.2263C64.3456 10.4989 65.0808 10.8984 65.7 11.402C66.3198 11.9051 66.8116 12.5025 67.147 13.16C67.4825 13.8176 67.6552 14.5225 67.6552 15.2343C67.6552 15.9461 67.4825 16.651 67.147 17.3086C66.8116 17.9661 66.3198 18.5635 65.7 19.0666L65.5 19.2291C64.7315 19.8674 64.216 20.6781 64.02 21.5567C63.8239 22.4352 63.9563 23.3414 64.4 24.1583V24.3749C64.8225 25.176 65.5241 25.8591 66.4184 26.3403C67.3127 26.8215 68.3607 27.0798 69.4333 27.0833H70C71.7681 27.0833 73.4638 27.6539 74.714 28.6698C75.9643 29.6856 76.6666 31.0633 76.6666 32.4999C76.6666 33.9365 75.9643 35.3143 74.714 36.3301C73.4638 37.3459 71.7681 37.9166 70 37.9166H69.7C68.6274 37.9201 67.5794 38.1783 66.6851 38.6595C65.7908 39.1407 65.0892 39.8239 64.6666 40.6249Z" stroke="#658354" stroke-width="2" stroke-linecap="round" stroke-linejoin="round"/>
<path d="M40 40.625C45.5228 40.625 50 36.9873 50 32.5C50 28.0127 45.5228 24.375 40 24.375C34.4772 24.375 30 28.0127 30 32.5C30 36.9873 34.4772 40.625 40 40.625Z" stroke="#658354" stroke-width="2" stroke-linecap="round" stroke-linejoin="round"/>
<path d="M64.6666 40.6249C64.2229 41.4418 64.0906 42.3479 64.2866 43.2265C64.4827 44.1051 64.9982 44.9158 65.7666 45.5541L65.9667 45.7166C66.5865 46.2196 67.0782 46.817 67.4137 47.4746C67.7492 48.1322 67.9219 48.837 67.9219 49.5489C67.9219 50.2607 67.7492 50.9656 67.4137 51.6231C67.0782 52.2807 66.5865 52.8781 65.9667 53.3812C65.3475 53.8848 64.6122 54.2843 63.8029 54.5569C62.9936 54.8295 62.1261 54.9698 61.25 54.9698C60.3739 54.9698 59.5064 54.8295 58.697 54.5569C57.8877 54.2843 57.1525 53.8848 56.5333 53.3812L56.3333 53.2187C55.5477 52.5943 54.5499 52.1755 53.4686 52.0162C52.3873 51.8569 51.272 51.9644 50.2666 52.3249C49.2808 52.6682 48.4399 53.2383 47.8477 53.9649C47.2554 54.6915 46.9376 55.543 46.9333 56.4145V56.8749C46.9333 58.3115 46.2309 59.6893 44.9807 60.7051C43.7304 61.7209 42.0348 62.2916 40.2666 62.2916C38.4985 62.2916 36.8028 61.7209 35.5526 60.7051C34.3024 59.6893 33.6 58.3115 33.6 56.8749V56.6312C33.5742 55.7347 33.217 54.8653 32.575 54.136C31.933 53.4066 31.0358 52.8511 30 52.5416C28.9946 52.1811 27.8793 52.0735 26.798 52.2328C25.7167 52.3921 24.7189 52.811 23.9333 53.4353L23.7333 53.5978C23.1142 54.1015 22.3789 54.501 21.5696 54.7736C20.7603 55.0462 19.8928 55.1865 19.0166 55.1865C18.1405 55.1865 17.273 55.0462 16.4637 54.7736C15.6544 54.501 14.9191 54.1015 14.3 53.5978C13.6801 53.0948 13.1884 52.4974 12.8529 51.8398C12.5174 51.1822 12.3447 50.4774 12.3447 49.7655C12.3447 49.0537 12.5174 48.3489 12.8529 47.6913C13.1884 47.0337 13.6801 46.4363 14.3 45.9332L14.5 45.7707C15.2684 45.1325 15.7839 44.3217 15.98 43.4432C16.1761 42.5646 16.0437 41.6585 15.6 40.8416C15.1774 40.0405 14.4758 39.3574 13.5815 38.8762C12.6872 38.395 11.6393 38.1367 10.5666 38.1333H9.99998C8.23187 38.1333 6.53618 37.5626 5.28593 36.5467C4.03569 35.5309 3.33331 34.1532 3.33331 32.7166C3.33331 31.28 4.03569 29.9022 5.28593 28.8864C6.53618 27.8706 8.23187 27.2999 9.99998 27.2999H10.3C11.4033 27.2789 12.4733 26.9888 13.371 26.4671C14.2686 25.9455 14.9524 25.2165 15.3333 24.3749C15.777 23.558 15.9094 22.6519 15.7133 21.7733C15.5173 20.8948 15.0018 20.084 14.2333 19.4458L14.0333 19.2833C13.4135 18.7802 12.9217 18.1828 12.5862 17.5252C12.2508 16.8676 12.0781 16.1628 12.0781 15.451C12.0781 14.7391 12.2508 14.0343 12.5862 13.3767C12.9217 12.7191 13.4135 12.1217 14.0333 11.6187C14.6525 11.115 15.3877 10.7155 16.197 10.4429C17.0064 10.1703 17.8739 10.03 18.75 10.03C19.6261 10.03 20.4936 10.1703 21.3029 10.4429C22.1122 10.7155 22.8475 11.115 23.4666 11.6187L23.6666 11.7812C24.4522 12.4055 25.45 12.8244 26.5314 12.9837C27.6127 13.143 28.7279 13.0354 29.7333 12.6749H30C30.9859 12.3316 31.8267 11.7615 32.419 11.0349C33.0112 10.3083 33.329 9.45684 33.3333 8.58534V8.12492C33.3333 6.68833 34.0357 5.31058 35.2859 4.29476C36.5362 3.27893 38.2319 2.70825 40 2.70825C41.7681 2.70825 43.4638 3.27893 44.714 4.29476C45.9643 5.31058 46.6666 6.68833 46.6666 8.12492V8.36867C46.6709 9.24017 46.9888 10.0916 47.581 10.8183C48.1733 11.5449 49.0141 12.1149 50 12.4583C51.0054 12.8188 52.1206 12.9263 53.2019 12.767C54.2833 12.6077 55.2811 12.1889 56.0666 11.5645L56.2666 11.402C56.8858 10.8984 57.6211 10.4989 58.4304 10.2263C59.2397 9.95367 60.1072 9.81337 60.9833 9.81337C61.8594 9.81337 62.7269 9.95367 63.5363 10.2263C64.3456 10.4989 65.0808 10.8984 65.7 11.402C66.3198 11.9051 66.8116 12.5025 67.147 13.16C67.4825 13.8176 67.6552 14.5225 67.6552 15.2343C67.6552 15.9461 67.4825 16.651 67.147 17.3086C66.8116 17.9661 66.3198 18.5635 65.7 19.0666L65.5 19.2291C64.7315 19.8674 64.216 20.6781 64.02 21.5567C63.8239 22.4352 63.9563 23.3414 64.4 24.1583V24.3749C64.8225 25.176 65.5241 25.8591 66.4184 26.3403C67.3127 26.8215 68.3607 27.0798 69.4333 27.0833H70C71.7681 27.0833 73.4638 27.6539 74.714 28.6698C75.9643 29.6856 76.6666 31.0633 76.6666 32.4999C76.6666 33.9365 75.9643 35.3143 74.714 36.3301C73.4638 37.3459 71.7681 37.9166 70 37.9166H69.7C68.6274 37.9201 67.5794 38.1783 66.6851 38.6595C65.7908 39.1407 65.0892 39.8239 64.6666 40.6249Z" stroke="#658354" stroke-width="2" stroke-linecap="round" stroke-linejoin="round"/>
<path d="M40 40.625C45.5228 40.625 50 36.9873 50 32.5C50 28.0127 45.5228 24.375 40 24.375C34.4772 24.375 30 28.0127 30 32.5C30 36.9873 34.4772 40.625 40 40.625Z" stroke="#658354" stroke-width="2" stroke-linecap="round" stroke-linejoin="round"/>
<path d="M64.6666 40.6249C64.2229 41.4418 64.0906 42.3479 64.2866 43.2265C64.4827 44.1051 64.9982 44.9158 65.7666 45.5541L65.9667 45.7166C66.5865 46.2196 67.0782 46.817 67.4137 47.4746C67.7492 48.1322 67.9219 48.837 67.9219 49.5489C67.9219 50.2607 67.7492 50.9656 67.4137 51.6231C67.0782 52.2807 66.5865 52.8781 65.9667 53.3812C65.3475 53.8848 64.6122 54.2843 63.8029 54.5569C62.9936 54.8295 62.1261 54.9698 61.25 54.9698C60.3739 54.9698 59.5064 54.8295 58.697 54.5569C57.8877 54.2843 57.1525 53.8848 56.5333 53.3812L56.3333 53.2187C55.5477 52.5943 54.5499 52.1755 53.4686 52.0162C52.3873 51.8569 51.272 51.9644 50.2666 52.3249C49.2808 52.6682 48.4399 53.2383 47.8477 53.9649C47.2554 54.6915 46.9376 55.543 46.9333 56.4145V56.8749C46.9333 58.3115 46.2309 59.6893 44.9807 60.7051C43.7304 61.7209 42.0348 62.2916 40.2666 62.2916C38.4985 62.2916 36.8028 61.7209 35.5526 60.7051C34.3024 59.6893 33.6 58.3115 33.6 56.8749V56.6312C33.5742 55.7347 33.217 54.8653 32.575 54.136C31.933 53.4066 31.0358 52.8511 30 52.5416C28.9946 52.1811 27.8793 52.0735 26.798 52.2328C25.7167 52.3921 24.7189 52.811 23.9333 53.4353L23.7333 53.5978C23.1142 54.1015 22.3789 54.501 21.5696 54.7736C20.7603 55.0462 19.8928 55.1865 19.0166 55.1865C18.1405 55.1865 17.273 55.0462 16.4637 54.7736C15.6544 54.501 14.9191 54.1015 14.3 53.5978C13.6801 53.0948 13.1884 52.4974 12.8529 51.8398C12.5174 51.1822 12.3447 50.4774 12.3447 49.7655C12.3447 49.0537 12.5174 48.3489 12.8529 47.6913C13.1884 47.0337 13.6801 46.4363 14.3 45.9332L14.5 45.7707C15.2684 45.1325 15.7839 44.3217 15.98 43.4432C16.1761 42.5646 16.0437 41.6585 15.6 40.8416C15.1774 40.0405 14.4758 39.3574 13.5815 38.8762C12.6872 38.395 11.6393 38.1367 10.5666 38.1333H9.99998C8.23187 38.1333 6.53618 37.5626 5.28593 36.5467C4.03569 35.5309 3.33331 34.1532 3.33331 32.7166C3.33331 31.28 4.03569 29.9022 5.28593 28.8864C6.53618 27.8706 8.23187 27.2999 9.99998 27.2999H10.3C11.4033 27.2789 12.4733 26.9888 13.371 26.4671C14.2686 25.9455 14.9524 25.2165 15.3333 24.3749C15.777 23.558 15.9094 22.6519 15.7133 21.7733C15.5173 20.8948 15.0018 20.084 14.2333 19.4458L14.0333 19.2833C13.4135 18.7802 12.9217 18.1828 12.5862 17.5252C12.2508 16.8676 12.0781 16.1628 12.0781 15.451C12.0781 14.7391 12.2508 14.0343 12.5862 13.3767C12.9217 12.7191 13.4135 12.1217 14.0333 11.6187C14.6525 11.115 15.3877 10.7155 16.197 10.4429C17.0064 10.1703 17.8739 10.03 18.75 10.03C19.6261 10.03 20.4936 10.1703 21.3029 10.4429C22.1122 10.7155 22.8475 11.115 23.4666 11.6187L23.6666 11.7812C24.4522 12.4055 25.45 12.8244 26.5314 12.9837C27.6127 13.143 28.7279 13.0354 29.7333 12.6749H30C30.9859 12.3316 31.8267 11.7615 32.419 11.0349C33.0112 10.3083 33.329 9.45684 33.3333 8.58534V8.12492C33.3333 6.68833 34.0357 5.31058 35.2859 4.29476C36.5362 3.27893 38.2319 2.70825 40 2.70825C41.7681 2.70825 43.4638 3.27893 44.714 4.29476C45.9643 5.31058 46.6666 6.68833 46.6666 8.12492V8.36867C46.6709 9.24017 46.9888 10.0916 47.581 10.8183C48.1733 11.5449 49.0141 12.1149 50 12.4583C51.0054 12.8188 52.1206 12.9263 53.2019 12.767C54.2833 12.6077 55.2811 12.1889 56.0666 11.5645L56.2666 11.402C56.8858 10.8984 57.6211 10.4989 58.4304 10.2263C59.2397 9.95367 60.1072 9.81337 60.9833 9.81337C61.8594 9.81337 62.7269 9.95367 63.5363 10.2263C64.3456 10.4989 65.0808 10.8984 65.7 11.402C66.3198 11.9051 66.8116 12.5025 67.147 13.16C67.4825 13.8176 67.6552 14.5225 67.6552 15.2343C67.6552 15.9461 67.4825 16.651 67.147 17.3086C66.8116 17.9661 66.3198 18.5635 65.7 19.0666L65.5 19.2291C64.7315 19.8674 64.216 20.6781 64.02 21.5567C63.8239 22.4352 63.9563 23.3414 64.4 24.1583V24.3749C64.8225 25.176 65.5241 25.8591 66.4184 26.3403C67.3127 26.8215 68.3607 27.0798 69.4333 27.0833H70C71.7681 27.0833 73.4638 27.6539 74.714 28.6698C75.9643 29.6856 76.6666 31.0633 76.6666 32.4999C76.6666 33.9365 75.9643 35.3143 74.714 36.3301C73.4638 37.3459 71.7681 37.9166 70 37.9166H69.7C68.6274 37.9201 67.5794 38.1783 66.6851 38.6595C65.7908 39.1407 65.0892 39.8239 64.6666 40.6249Z" stroke="#658354" stroke-width="2" stroke-linecap="round" stroke-linejoin="round"/>
<path d="M40 40.625C45.5228 40.625 50 36.9873 50 32.5C50 28.0127 45.5228 24.375 40 24.375C34.4772 24.375 30 28.0127 30 32.5C30 36.9873 34.4772 40.625 40 40.625Z" stroke="#658354" stroke-width="2" stroke-linecap="round" stroke-linejoin="round"/>
<path d="M64.6666 40.6249C64.2229 41.4418 64.0906 42.3479 64.2866 43.2265C64.4827 44.1051 64.9982 44.9158 65.7666 45.5541L65.9667 45.7166C66.5865 46.2196 67.0782 46.817 67.4137 47.4746C67.7492 48.1322 67.9219 48.837 67.9219 49.5489C67.9219 50.2607 67.7492 50.9656 67.4137 51.6231C67.0782 52.2807 66.5865 52.8781 65.9667 53.3812C65.3475 53.8848 64.6122 54.2843 63.8029 54.5569C62.9936 54.8295 62.1261 54.9698 61.25 54.9698C60.3739 54.9698 59.5064 54.8295 58.697 54.5569C57.8877 54.2843 57.1525 53.8848 56.5333 53.3812L56.3333 53.2187C55.5477 52.5943 54.5499 52.1755 53.4686 52.0162C52.3873 51.8569 51.272 51.9644 50.2666 52.3249C49.2808 52.6682 48.4399 53.2383 47.8477 53.9649C47.2554 54.6915 46.9376 55.543 46.9333 56.4145V56.8749C46.9333 58.3115 46.2309 59.6893 44.9807 60.7051C43.7304 61.7209 42.0348 62.2916 40.2666 62.2916C38.4985 62.2916 36.8028 61.7209 35.5526 60.7051C34.3024 59.6893 33.6 58.3115 33.6 56.8749V56.6312C33.5742 55.7347 33.217 54.8653 32.575 54.136C31.933 53.4066 31.0358 52.8511 30 52.5416C28.9946 52.1811 27.8793 52.0735 26.798 52.2328C25.7167 52.3921 24.7189 52.811 23.9333 53.4353L23.7333 53.5978C23.1142 54.1015 22.3789 54.501 21.5696 54.7736C20.7603 55.0462 19.8928 55.1865 19.0166 55.1865C18.1405 55.1865 17.273 55.0462 16.4637 54.7736C15.6544 54.501 14.9191 54.1015 14.3 53.5978C13.6801 53.0948 13.1884 52.4974 12.8529 51.8398C12.5174 51.1822 12.3447 50.4774 12.3447 49.7655C12.3447 49.0537 12.5174 48.3489 12.8529 47.6913C13.1884 47.0337 13.6801 46.4363 14.3 45.9332L14.5 45.7707C15.2684 45.1325 15.7839 44.3217 15.98 43.4432C16.1761 42.5646 16.0437 41.6585 15.6 40.8416C15.1774 40.0405 14.4758 39.3574 13.5815 38.8762C12.6872 38.395 11.6393 38.1367 10.5666 38.1333H9.99998C8.23187 38.1333 6.53618 37.5626 5.28593 36.5467C4.03569 35.5309 3.33331 34.1532 3.33331 32.7166C3.33331 31.28 4.03569 29.9022 5.28593 28.8864C6.53618 27.8706 8.23187 27.2999 9.99998 27.2999H10.3C11.4033 27.2789 12.4733 26.9888 13.371 26.4671C14.2686 25.9455 14.9524 25.2165 15.3333 24.3749C15.777 23.558 15.9094 22.6519 15.7133 21.7733C15.5173 20.8948 15.0018 20.084 14.2333 19.4458L14.0333 19.2833C13.4135 18.7802 12.9217 18.1828 12.5862 17.5252C12.2508 16.8676 12.0781 16.1628 12.0781 15.451C12.0781 14.7391 12.2508 14.0343 12.5862 13.3767C12.9217 12.7191 13.4135 12.1217 14.0333 11.6187C14.6525 11.115 15.3877 10.7155 16.197 10.4429C17.0064 10.1703 17.8739 10.03 18.75 10.03C19.6261 10.03 20.4936 10.1703 21.3029 10.4429C22.1122 10.7155 22.8475 11.115 23.4666 11.6187L23.6666 11.7812C24.4522 12.4055 25.45 12.8244 26.5314 12.9837C27.6127 13.143 28.7279 13.0354 29.7333 12.6749H30C30.9859 12.3316 31.8267 11.7615 32.419 11.0349C33.0112 10.3083 33.329 9.45684 33.3333 8.58534V8.12492C33.3333 6.68833 34.0357 5.31058 35.2859 4.29476C36.5362 3.27893 38.2319 2.70825 40 2.70825C41.7681 2.70825 43.4638 3.27893 44.714 4.29476C45.9643 5.31058 46.6666 6.68833 46.6666 8.12492V8.36867C46.6709 9.24017 46.9888 10.0916 47.581 10.8183C48.1733 11.5449 49.0141 12.1149 50 12.4583C51.0054 12.8188 52.1206 12.9263 53.2019 12.767C54.2833 12.6077 55.2811 12.1889 56.0666 11.5645L56.2666 11.402C56.8858 10.8984 57.6211 10.4989 58.4304 10.2263C59.2397 9.95367 60.1072 9.81337 60.9833 9.81337C61.8594 9.81337 62.7269 9.95367 63.5363 10.2263C64.3456 10.4989 65.0808 10.8984 65.7 11.402C66.3198 11.9051 66.8116 12.5025 67.147 13.16C67.4825 13.8176 67.6552 14.5225 67.6552 15.2343C67.6552 15.9461 67.4825 16.651 67.147 17.3086C66.8116 17.9661 66.3198 18.5635 65.7 19.0666L65.5 19.2291C64.7315 19.8674 64.216 20.6781 64.02 21.5567C63.8239 22.4352 63.9563 23.3414 64.4 24.1583V24.3749C64.8225 25.176 65.5241 25.8591 66.4184 26.3403C67.3127 26.8215 68.3607 27.0798 69.4333 27.0833H70C71.7681 27.0833 73.4638 27.6539 74.714 28.6698C75.9643 29.6856 76.6666 31.0633 76.6666 32.4999C76.6666 33.9365 75.9643 35.3143 74.714 36.3301C73.4638 37.3459 71.7681 37.9166 70 37.9166H69.7C68.6274 37.9201 67.5794 38.1783 66.6851 38.6595C65.7908 39.1407 65.0892 39.8239 64.6666 40.6249Z" stroke="#658354" stroke-width="2" stroke-linecap="round" stroke-linejoin="round"/>
</svg>
