<svg width="72" height="82" viewBox="0 0 72 82" fill="none" xmlns="http://www.w3.org/2000/svg">
<path d="M60.0333 42.8C63.317 39.0472 65.1617 33.9573 65.1617 28.65C65.1617 23.3428 63.317 18.2529 60.0333 14.5C56.7495 10.7472 52.2959 8.63892 47.652 8.63892C43.0081 8.63892 38.5545 10.7472 35.2708 14.5L15.5833 37V65.3334H40.3749L60.0333 42.8Z" stroke="#658354" stroke-width="2" stroke-linecap="round" stroke-linejoin="round"/>
<path d="M47.6666 28.6667L6.83325 75.3334" stroke="#658354" stroke-width="2" stroke-linecap="round" stroke-linejoin="round"/>
<path d="M52.0417 52H27.25" stroke="#658354" stroke-width="2" stroke-linecap="round" stroke-linejoin="round"/>
<path d="M61.0333 42.8C64.317 39.0472 66.1617 33.9573 66.1617 28.65C66.1617 23.3428 64.317 18.2529 61.0333 14.5C57.7495 10.7472 53.2959 8.63892 48.652 8.63892C44.0081 8.63892 39.5545 10.7472 36.2708 14.5L16.5833 37V65.3334H41.3749L61.0333 42.8Z" stroke="#658354" stroke-width="2" stroke-linecap="round" stroke-linejoin="round"/>
<path d="M48.6666 28.6667L7.83325 75.3334" stroke="#658354" stroke-width="2" stroke-linecap="round" stroke-linejoin="round"/>
<path d="M53.0417 52H28.25" stroke="#658354" stroke-width="2" stroke-linecap="round" stroke-linejoin="round"/>
<path d="M59.0333 40.8C62.317 37.0472 64.1617 31.9573 64.1617 26.65C64.1617 21.3428 62.317 16.2529 59.0333 12.5C55.7495 8.74722 51.2959 6.63892 46.652 6.63892C42.0081 6.63892 37.5545 8.74722 34.2708 12.5L14.5833 35V63.3334H39.3749L59.0333 40.8Z" stroke="#658354" stroke-width="2" stroke-linecap="round" stroke-linejoin="round"/>
<path d="M46.6666 26.6667L5.83325 73.3334" stroke="#658354" stroke-width="2" stroke-linecap="round" stroke-linejoin="round"/>
<path d="M51.0417 50H26.25" stroke="#658354" stroke-width="2" stroke-linecap="round" stroke-linejoin="round"/>
</svg>
