<svg width="71" height="62" viewBox="0 0 71 62" fill="none" xmlns="http://www.w3.org/2000/svg">
<path d="M7.7 49.0537H62.3C62.6869 49.0537 63 48.7851 63 48.4537V13.5438C63 13.2125 62.6869 12.9439 62.3 12.9439H7.7C7.31309 12.9439 7.00001 13.2125 7.00001 13.5438V48.4537C7.00001 48.7851 7.31309 49.0537 7.7 49.0537ZM8.40001 14.1438H13.6631L11.6273 15.8891C11.3538 16.1234 11.3538 16.5031 11.6273 16.7375C11.9007 16.9719 12.3437 16.9719 12.6171 16.7375L15.6427 14.1438H19.671L17.6347 15.8891C17.3612 16.1234 17.3612 16.5031 17.6347 16.7375C17.9081 16.9719 18.3511 16.9719 18.6245 16.7375L21.6508 14.1438H25.6791L23.6428 15.8891C23.3693 16.1234 23.3693 16.5031 23.6428 16.7375C23.9162 16.9719 24.3592 16.9719 24.6326 16.7375L27.6589 14.1438H31.6872L29.6509 15.8891C29.3774 16.1234 29.3774 16.5031 29.6509 16.7375C29.9243 16.9719 30.3673 16.9719 30.6407 16.7375L33.667 14.1438H37.6946L35.6583 15.8891C35.3849 16.1234 35.3849 16.5031 35.6583 16.7375C35.9317 16.9719 36.3747 16.9719 36.6481 16.7375L39.6744 14.1438H43.7027L41.6664 15.8891C41.393 16.1234 41.393 16.5031 41.6664 16.7375C41.9398 16.9719 42.3828 16.9719 42.6563 16.7375L45.6825 14.1438H49.7108L47.6745 15.8891C47.4011 16.1234 47.4011 16.5031 47.6745 16.7375C47.948 16.9719 48.3909 16.9719 48.6644 16.7375L51.6906 14.1438H55.7185L53.6826 15.8891C53.4092 16.1234 53.4092 16.5031 53.6826 16.7375C53.9561 16.9719 54.399 16.9719 54.6725 16.7375L57.698 14.1438H61.6V47.8537H55.8115L57.7479 46.1938C58.0214 45.9594 58.0214 45.5797 57.7479 45.3453C57.6112 45.2281 57.4321 45.1695 57.253 45.1695C57.0739 45.1695 56.8948 45.2281 56.7581 45.3453L53.832 47.8537H49.8037L51.7405 46.1938C52.014 45.9594 52.014 45.5797 51.7405 45.3453C51.6038 45.2281 51.4247 45.1695 51.2456 45.1695C51.0665 45.1695 50.8874 45.2281 50.7507 45.3453L47.8239 47.8537H43.7956L45.7324 46.1938C46.0059 45.9594 46.0059 45.5797 45.7324 45.3453C45.5957 45.2281 45.4166 45.1695 45.2375 45.1695C45.0584 45.1695 44.8793 45.2281 44.7426 45.3453L41.8158 47.8537H37.7875L39.7243 46.1938C39.9978 45.9594 39.9978 45.5797 39.7243 45.3453C39.5876 45.2281 39.4085 45.1695 39.2294 45.1695C39.0503 45.1695 38.8712 45.2281 38.7345 45.3453L35.8077 47.8537H31.7801L33.7169 46.1938C33.9903 45.9594 33.9903 45.5797 33.7169 45.3453C33.5802 45.2281 33.4011 45.1695 33.222 45.1695C33.0429 45.1695 32.8638 45.2281 32.7271 45.3453L29.8002 47.8537H25.772L27.7088 46.1938C27.9822 45.9594 27.9822 45.5797 27.7088 45.3453C27.5721 45.2281 27.393 45.1695 27.2139 45.1695C27.0348 45.1695 26.8557 45.2281 26.7189 45.3453L23.7921 47.8537H19.7639L21.7007 46.1938C21.9741 45.9594 21.9741 45.5797 21.7007 45.3453C21.564 45.2281 21.3849 45.1695 21.2058 45.1695C21.0267 45.1695 20.8476 45.2281 20.7108 45.3453L17.784 47.8537H13.7562L15.6926 46.1938C15.966 45.9594 15.966 45.5797 15.6926 45.3453C15.5559 45.2281 15.3768 45.1695 15.1977 45.1695C15.0186 45.1695 14.8395 45.2281 14.7027 45.3453L11.7766 47.8537H8.40001V14.1438Z" fill="#4D6440"/>
<path d="M15.4821 37.3872H26.0272C26.4141 37.3872 26.7272 37.1186 26.7272 36.7872V25.21C26.7272 24.8786 26.4141 24.61 26.0272 24.61H15.4821C15.0951 24.61 14.7821 24.8786 14.7821 25.21V36.7872C14.7821 37.1186 15.0951 37.3872 15.4821 37.3872ZM16.1821 25.81H25.3272V36.1872H16.1821V25.81Z" fill="#4D6440"/>
<path d="M33.8153 37.3872H54.518C54.9049 37.3872 55.218 37.1186 55.218 36.7872C55.218 36.4559 54.9049 36.1872 54.518 36.1872H33.8153C33.4284 36.1872 33.1153 36.4559 33.1153 36.7872C33.1153 37.1186 33.4284 37.3872 33.8153 37.3872Z" fill="#4D6440"/>
<path d="M33.8153 31.5989H54.518C54.9049 31.5989 55.218 31.3302 55.218 30.9989C55.218 30.6675 54.9049 30.3989 54.518 30.3989H33.8153C33.4284 30.3989 33.1153 30.6675 33.1153 30.9989C33.1153 31.3302 33.4284 31.5989 33.8153 31.5989Z" fill="#4D6440"/>
<path d="M33.8153 25.8101H54.518C54.9049 25.8101 55.218 25.5414 55.218 25.2101C55.218 24.8787 54.9049 24.6101 54.518 24.6101H33.8153C33.4284 24.6101 33.1153 24.8787 33.1153 25.2101C33.1153 25.5414 33.4284 25.8101 33.8153 25.8101Z" fill="#4D6440"/>
<path d="M8.7 49.0537H63.3C63.6869 49.0537 64 48.7851 64 48.4537V13.5438C64 13.2125 63.6869 12.9439 63.3 12.9439H8.7C8.31309 12.9439 8.00001 13.2125 8.00001 13.5438V48.4537C8.00001 48.7851 8.31309 49.0537 8.7 49.0537ZM9.40001 14.1438H14.6631L12.6273 15.8891C12.3538 16.1234 12.3538 16.5031 12.6273 16.7375C12.9007 16.9719 13.3437 16.9719 13.6171 16.7375L16.6427 14.1438H20.671L18.6347 15.8891C18.3612 16.1234 18.3612 16.5031 18.6347 16.7375C18.9081 16.9719 19.3511 16.9719 19.6245 16.7375L22.6508 14.1438H26.6791L24.6428 15.8891C24.3693 16.1234 24.3693 16.5031 24.6428 16.7375C24.9162 16.9719 25.3592 16.9719 25.6326 16.7375L28.6589 14.1438H32.6872L30.6509 15.8891C30.3774 16.1234 30.3774 16.5031 30.6509 16.7375C30.9243 16.9719 31.3673 16.9719 31.6407 16.7375L34.667 14.1438H38.6946L36.6583 15.8891C36.3849 16.1234 36.3849 16.5031 36.6583 16.7375C36.9317 16.9719 37.3747 16.9719 37.6481 16.7375L40.6744 14.1438H44.7027L42.6664 15.8891C42.393 16.1234 42.393 16.5031 42.6664 16.7375C42.9398 16.9719 43.3828 16.9719 43.6563 16.7375L46.6825 14.1438H50.7108L48.6745 15.8891C48.4011 16.1234 48.4011 16.5031 48.6745 16.7375C48.948 16.9719 49.3909 16.9719 49.6644 16.7375L52.6906 14.1438H56.7185L54.6826 15.8891C54.4092 16.1234 54.4092 16.5031 54.6826 16.7375C54.9561 16.9719 55.399 16.9719 55.6725 16.7375L58.698 14.1438H62.6V47.8537H56.8115L58.7479 46.1938C59.0214 45.9594 59.0214 45.5797 58.7479 45.3453C58.6112 45.2281 58.4321 45.1695 58.253 45.1695C58.0739 45.1695 57.8948 45.2281 57.7581 45.3453L54.832 47.8537H50.8037L52.7405 46.1938C53.014 45.9594 53.014 45.5797 52.7405 45.3453C52.6038 45.2281 52.4247 45.1695 52.2456 45.1695C52.0665 45.1695 51.8874 45.2281 51.7507 45.3453L48.8239 47.8537H44.7956L46.7324 46.1938C47.0059 45.9594 47.0059 45.5797 46.7324 45.3453C46.5957 45.2281 46.4166 45.1695 46.2375 45.1695C46.0584 45.1695 45.8793 45.2281 45.7426 45.3453L42.8158 47.8537H38.7875L40.7243 46.1938C40.9978 45.9594 40.9978 45.5797 40.7243 45.3453C40.5876 45.2281 40.4085 45.1695 40.2294 45.1695C40.0503 45.1695 39.8712 45.2281 39.7345 45.3453L36.8077 47.8537H32.7801L34.7169 46.1938C34.9903 45.9594 34.9903 45.5797 34.7169 45.3453C34.5802 45.2281 34.4011 45.1695 34.222 45.1695C34.0429 45.1695 33.8638 45.2281 33.7271 45.3453L30.8002 47.8537H26.772L28.7088 46.1938C28.9822 45.9594 28.9822 45.5797 28.7088 45.3453C28.5721 45.2281 28.393 45.1695 28.2139 45.1695C28.0348 45.1695 27.8557 45.2281 27.7189 45.3453L24.7921 47.8537H20.7639L22.7007 46.1938C22.9741 45.9594 22.9741 45.5797 22.7007 45.3453C22.564 45.2281 22.3849 45.1695 22.2058 45.1695C22.0267 45.1695 21.8476 45.2281 21.7108 45.3453L18.784 47.8537H14.7562L16.6926 46.1938C16.966 45.9594 16.966 45.5797 16.6926 45.3453C16.5559 45.2281 16.3768 45.1695 16.1977 45.1695C16.0186 45.1695 15.8395 45.2281 15.7027 45.3453L12.7766 47.8537H9.40001V14.1438Z" fill="#4D6440"/>
<path d="M16.4821 37.3872H27.0272C27.4141 37.3872 27.7272 37.1186 27.7272 36.7872V25.21C27.7272 24.8786 27.4141 24.61 27.0272 24.61H16.4821C16.0951 24.61 15.7821 24.8786 15.7821 25.21V36.7872C15.7821 37.1186 16.0951 37.3872 16.4821 37.3872ZM17.1821 25.81H26.3272V36.1872H17.1821V25.81Z" fill="#4D6440"/>
<path d="M34.8153 37.3872H55.518C55.9049 37.3872 56.218 37.1186 56.218 36.7872C56.218 36.4559 55.9049 36.1872 55.518 36.1872H34.8153C34.4284 36.1872 34.1153 36.4559 34.1153 36.7872C34.1153 37.1186 34.4284 37.3872 34.8153 37.3872Z" fill="#4D6440"/>
<path d="M34.8153 31.5989H55.518C55.9049 31.5989 56.218 31.3302 56.218 30.9989C56.218 30.6675 55.9049 30.3989 55.518 30.3989H34.8153C34.4284 30.3989 34.1153 30.6675 34.1153 30.9989C34.1153 31.3302 34.4284 31.5989 34.8153 31.5989Z" fill="#4D6440"/>
<path d="M34.8153 25.8101H55.518C55.9049 25.8101 56.218 25.5414 56.218 25.2101C56.218 24.8787 55.9049 24.6101 55.518 24.6101H34.8153C34.4284 24.6101 34.1153 24.8787 34.1153 25.2101C34.1153 25.5414 34.4284 25.8101 34.8153 25.8101Z" fill="#4D6440"/>
<path d="M8.7 50.0537H63.3C63.6869 50.0537 64 49.7851 64 49.4537V14.5438C64 14.2125 63.6869 13.9439 63.3 13.9439H8.7C8.31309 13.9439 8.00001 14.2125 8.00001 14.5438V49.4537C8.00001 49.7851 8.31309 50.0537 8.7 50.0537ZM9.40001 15.1438H14.6631L12.6273 16.8891C12.3538 17.1234 12.3538 17.5031 12.6273 17.7375C12.9007 17.9719 13.3437 17.9719 13.6171 17.7375L16.6427 15.1438H20.671L18.6347 16.8891C18.3612 17.1234 18.3612 17.5031 18.6347 17.7375C18.9081 17.9719 19.3511 17.9719 19.6245 17.7375L22.6508 15.1438H26.6791L24.6428 16.8891C24.3693 17.1234 24.3693 17.5031 24.6428 17.7375C24.9162 17.9719 25.3592 17.9719 25.6326 17.7375L28.6589 15.1438H32.6872L30.6509 16.8891C30.3774 17.1234 30.3774 17.5031 30.6509 17.7375C30.9243 17.9719 31.3673 17.9719 31.6407 17.7375L34.667 15.1438H38.6946L36.6583 16.8891C36.3849 17.1234 36.3849 17.5031 36.6583 17.7375C36.9317 17.9719 37.3747 17.9719 37.6481 17.7375L40.6744 15.1438H44.7027L42.6664 16.8891C42.393 17.1234 42.393 17.5031 42.6664 17.7375C42.9398 17.9719 43.3828 17.9719 43.6563 17.7375L46.6825 15.1438H50.7108L48.6745 16.8891C48.4011 17.1234 48.4011 17.5031 48.6745 17.7375C48.948 17.9719 49.3909 17.9719 49.6644 17.7375L52.6906 15.1438H56.7185L54.6826 16.8891C54.4092 17.1234 54.4092 17.5031 54.6826 17.7375C54.9561 17.9719 55.399 17.9719 55.6725 17.7375L58.698 15.1438H62.6V48.8537H56.8115L58.7479 47.1938C59.0214 46.9594 59.0214 46.5797 58.7479 46.3453C58.6112 46.2281 58.4321 46.1695 58.253 46.1695C58.0739 46.1695 57.8948 46.2281 57.7581 46.3453L54.832 48.8537H50.8037L52.7405 47.1938C53.014 46.9594 53.014 46.5797 52.7405 46.3453C52.6038 46.2281 52.4247 46.1695 52.2456 46.1695C52.0665 46.1695 51.8874 46.2281 51.7507 46.3453L48.8239 48.8537H44.7956L46.7324 47.1938C47.0059 46.9594 47.0059 46.5797 46.7324 46.3453C46.5957 46.2281 46.4166 46.1695 46.2375 46.1695C46.0584 46.1695 45.8793 46.2281 45.7426 46.3453L42.8158 48.8537H38.7875L40.7243 47.1938C40.9978 46.9594 40.9978 46.5797 40.7243 46.3453C40.5876 46.2281 40.4085 46.1695 40.2294 46.1695C40.0503 46.1695 39.8712 46.2281 39.7345 46.3453L36.8077 48.8537H32.7801L34.7169 47.1938C34.9903 46.9594 34.9903 46.5797 34.7169 46.3453C34.5802 46.2281 34.4011 46.1695 34.222 46.1695C34.0429 46.1695 33.8638 46.2281 33.7271 46.3453L30.8002 48.8537H26.772L28.7088 47.1938C28.9822 46.9594 28.9822 46.5797 28.7088 46.3453C28.5721 46.2281 28.393 46.1695 28.2139 46.1695C28.0348 46.1695 27.8557 46.2281 27.7189 46.3453L24.7921 48.8537H20.7639L22.7007 47.1938C22.9741 46.9594 22.9741 46.5797 22.7007 46.3453C22.564 46.2281 22.3849 46.1695 22.2058 46.1695C22.0267 46.1695 21.8476 46.2281 21.7108 46.3453L18.784 48.8537H14.7562L16.6926 47.1938C16.966 46.9594 16.966 46.5797 16.6926 46.3453C16.5559 46.2281 16.3768 46.1695 16.1977 46.1695C16.0186 46.1695 15.8395 46.2281 15.7027 46.3453L12.7766 48.8537H9.40001V15.1438Z" fill="#4D6440"/>
<path d="M16.4821 38.3872H27.0272C27.4141 38.3872 27.7272 38.1186 27.7272 37.7872V26.21C27.7272 25.8786 27.4141 25.61 27.0272 25.61H16.4821C16.0951 25.61 15.7821 25.8786 15.7821 26.21V37.7872C15.7821 38.1186 16.0951 38.3872 16.4821 38.3872ZM17.1821 26.81H26.3272V37.1872H17.1821V26.81Z" fill="#4D6440"/>
<path d="M34.8153 38.3872H55.518C55.9049 38.3872 56.218 38.1186 56.218 37.7872C56.218 37.4559 55.9049 37.1872 55.518 37.1872H34.8153C34.4284 37.1872 34.1153 37.4559 34.1153 37.7872C34.1153 38.1186 34.4284 38.3872 34.8153 38.3872Z" fill="#4D6440"/>
<path d="M34.8153 32.5989H55.518C55.9049 32.5989 56.218 32.3302 56.218 31.9989C56.218 31.6675 55.9049 31.3989 55.518 31.3989H34.8153C34.4284 31.3989 34.1153 31.6675 34.1153 31.9989C34.1153 32.3302 34.4284 32.5989 34.8153 32.5989Z" fill="#4D6440"/>
<path d="M34.8153 26.8101H55.518C55.9049 26.8101 56.218 26.5414 56.218 26.2101C56.218 25.8787 55.9049 25.6101 55.518 25.6101H34.8153C34.4284 25.6101 34.1153 25.8787 34.1153 26.2101C34.1153 26.5414 34.4284 26.8101 34.8153 26.8101Z" fill="#4D6440"/>
<path d="M8.7 48.0537H63.3C63.6869 48.0537 64 47.7851 64 47.4537V12.5438C64 12.2125 63.6869 11.9439 63.3 11.9439H8.7C8.31309 11.9439 8.00001 12.2125 8.00001 12.5438V47.4537C8.00001 47.7851 8.31309 48.0537 8.7 48.0537ZM9.40001 13.1438H14.6631L12.6273 14.8891C12.3538 15.1234 12.3538 15.5031 12.6273 15.7375C12.9007 15.9719 13.3437 15.9719 13.6171 15.7375L16.6427 13.1438H20.671L18.6347 14.8891C18.3612 15.1234 18.3612 15.5031 18.6347 15.7375C18.9081 15.9719 19.3511 15.9719 19.6245 15.7375L22.6508 13.1438H26.6791L24.6428 14.8891C24.3693 15.1234 24.3693 15.5031 24.6428 15.7375C24.9162 15.9719 25.3592 15.9719 25.6326 15.7375L28.6589 13.1438H32.6872L30.6509 14.8891C30.3774 15.1234 30.3774 15.5031 30.6509 15.7375C30.9243 15.9719 31.3673 15.9719 31.6407 15.7375L34.667 13.1438H38.6946L36.6583 14.8891C36.3849 15.1234 36.3849 15.5031 36.6583 15.7375C36.9317 15.9719 37.3747 15.9719 37.6481 15.7375L40.6744 13.1438H44.7027L42.6664 14.8891C42.393 15.1234 42.393 15.5031 42.6664 15.7375C42.9398 15.9719 43.3828 15.9719 43.6563 15.7375L46.6825 13.1438H50.7108L48.6745 14.8891C48.4011 15.1234 48.4011 15.5031 48.6745 15.7375C48.948 15.9719 49.3909 15.9719 49.6644 15.7375L52.6906 13.1438H56.7185L54.6826 14.8891C54.4092 15.1234 54.4092 15.5031 54.6826 15.7375C54.9561 15.9719 55.399 15.9719 55.6725 15.7375L58.698 13.1438H62.6V46.8537H56.8115L58.7479 45.1938C59.0214 44.9594 59.0214 44.5797 58.7479 44.3453C58.6112 44.2281 58.4321 44.1695 58.253 44.1695C58.0739 44.1695 57.8948 44.2281 57.7581 44.3453L54.832 46.8537H50.8037L52.7405 45.1938C53.014 44.9594 53.014 44.5797 52.7405 44.3453C52.6038 44.2281 52.4247 44.1695 52.2456 44.1695C52.0665 44.1695 51.8874 44.2281 51.7507 44.3453L48.8239 46.8537H44.7956L46.7324 45.1938C47.0059 44.9594 47.0059 44.5797 46.7324 44.3453C46.5957 44.2281 46.4166 44.1695 46.2375 44.1695C46.0584 44.1695 45.8793 44.2281 45.7426 44.3453L42.8158 46.8537H38.7875L40.7243 45.1938C40.9978 44.9594 40.9978 44.5797 40.7243 44.3453C40.5876 44.2281 40.4085 44.1695 40.2294 44.1695C40.0503 44.1695 39.8712 44.2281 39.7345 44.3453L36.8077 46.8537H32.7801L34.7169 45.1938C34.9903 44.9594 34.9903 44.5797 34.7169 44.3453C34.5802 44.2281 34.4011 44.1695 34.222 44.1695C34.0429 44.1695 33.8638 44.2281 33.7271 44.3453L30.8002 46.8537H26.772L28.7088 45.1938C28.9822 44.9594 28.9822 44.5797 28.7088 44.3453C28.5721 44.2281 28.393 44.1695 28.2139 44.1695C28.0348 44.1695 27.8557 44.2281 27.7189 44.3453L24.7921 46.8537H20.7639L22.7007 45.1938C22.9741 44.9594 22.9741 44.5797 22.7007 44.3453C22.564 44.2281 22.3849 44.1695 22.2058 44.1695C22.0267 44.1695 21.8476 44.2281 21.7108 44.3453L18.784 46.8537H14.7562L16.6926 45.1938C16.966 44.9594 16.966 44.5797 16.6926 44.3453C16.5559 44.2281 16.3768 44.1695 16.1977 44.1695C16.0186 44.1695 15.8395 44.2281 15.7027 44.3453L12.7766 46.8537H9.40001V13.1438Z" fill="#4D6440"/>
<path d="M16.4821 36.3872H27.0272C27.4141 36.3872 27.7272 36.1186 27.7272 35.7872V24.21C27.7272 23.8786 27.4141 23.61 27.0272 23.61H16.4821C16.0951 23.61 15.7821 23.8786 15.7821 24.21V35.7872C15.7821 36.1186 16.0951 36.3872 16.4821 36.3872ZM17.1821 24.81H26.3272V35.1872H17.1821V24.81Z" fill="#4D6440"/>
<path d="M34.8153 36.3872H55.518C55.9049 36.3872 56.218 36.1186 56.218 35.7872C56.218 35.4559 55.9049 35.1872 55.518 35.1872H34.8153C34.4284 35.1872 34.1153 35.4559 34.1153 35.7872C34.1153 36.1186 34.4284 36.3872 34.8153 36.3872Z" fill="#4D6440"/>
<path d="M34.8153 30.5989H55.518C55.9049 30.5989 56.218 30.3302 56.218 29.9989C56.218 29.6675 55.9049 29.3989 55.518 29.3989H34.8153C34.4284 29.3989 34.1153 29.6675 34.1153 29.9989C34.1153 30.3302 34.4284 30.5989 34.8153 30.5989Z" fill="#4D6440"/>
<path d="M34.8153 24.8101H55.518C55.9049 24.8101 56.218 24.5414 56.218 24.2101C56.218 23.8787 55.9049 23.6101 55.518 23.6101H34.8153C34.4284 23.6101 34.1153 23.8787 34.1153 24.2101C34.1153 24.5414 34.4284 24.8101 34.8153 24.8101Z" fill="#4D6440"/>
</svg>
