<svg width="50" height="50" viewBox="0 0 50 50" fill="none" xmlns="http://www.w3.org/2000/svg">
<rect width="50" height="50" fill="#658354"/>
<g filter="url(#filter0_d_186_292)">
<path d="M37.5 16.6667C37.5 13.3515 36.183 10.1721 33.8388 7.82791C31.4946 5.48371 28.3152 4.16675 25 4.16675C21.6848 4.16675 18.5054 5.48371 16.1612 7.82791C13.817 10.1721 12.5 13.3515 12.5 16.6667C12.5 31.2501 6.25 35.4167 6.25 35.4167H43.75C43.75 35.4167 37.5 31.2501 37.5 16.6667Z" stroke="white" stroke-width="2" stroke-linecap="round" stroke-linejoin="round" shape-rendering="crispEdges"/>
</g>
<path d="M28.6042 43.75C28.2379 44.3814 27.7122 44.9055 27.0796 45.2699C26.4471 45.6342 25.73 45.826 25 45.826C24.27 45.826 23.5529 45.6342 22.9204 45.2699C22.2878 44.9055 21.7621 44.3814 21.3958 43.75" stroke="white" stroke-width="2" stroke-linecap="round" stroke-linejoin="round"/>
<defs>
<filter id="filter0_d_186_292" x="1.24992" y="3.16675" width="47.5002" height="41.25" filterUnits="userSpaceOnUse" color-interpolation-filters="sRGB">
<feFlood flood-opacity="0" result="BackgroundImageFix"/>
<feColorMatrix in="SourceAlpha" type="matrix" values="0 0 0 0 0 0 0 0 0 0 0 0 0 0 0 0 0 0 127 0" result="hardAlpha"/>
<feOffset dy="4"/>
<feGaussianBlur stdDeviation="2"/>
<feComposite in2="hardAlpha" operator="out"/>
<feColorMatrix type="matrix" values="0 0 0 0 0 0 0 0 0 0 0 0 0 0 0 0 0 0 0.25 0"/>
<feBlend mode="normal" in2="BackgroundImageFix" result="effect1_dropShadow_186_292"/>
<feBlend mode="normal" in="SourceGraphic" in2="effect1_dropShadow_186_292" result="shape"/>
</filter>
</defs>
</svg>
