<svg width="50" height="50" viewBox="0 0 50 50" fill="none" xmlns="http://www.w3.org/2000/svg">
<path d="M25 31.25C28.4518 31.25 31.25 28.4518 31.25 25C31.25 21.5482 28.4518 18.75 25 18.75C21.5482 18.75 18.75 21.5482 18.75 25C18.75 28.4518 21.5482 31.25 25 31.25Z" stroke="white" stroke-width="2" stroke-linecap="round" stroke-linejoin="round"/>
<path d="M40.4167 31.2499C40.1394 31.8783 40.0567 32.5753 40.1792 33.2511C40.3017 33.927 40.6239 34.5506 41.1042 35.0416L41.2292 35.1666C41.6166 35.5536 41.9239 36.0131 42.1336 36.5189C42.3433 37.0247 42.4512 37.5669 42.4512 38.1145C42.4512 38.6621 42.3433 39.2043 42.1336 39.7101C41.9239 40.2159 41.6166 40.6754 41.2292 41.0624C40.8422 41.4498 40.3827 41.7571 39.8769 41.9668C39.371 42.1765 38.8289 42.2844 38.2813 42.2844C37.7337 42.2844 37.1915 42.1765 36.6857 41.9668C36.1799 41.7571 35.7203 41.4498 35.3334 41.0624L35.2084 40.9374C34.7174 40.4571 34.0938 40.1349 33.4179 40.0124C32.7421 39.8899 32.0451 39.9726 31.4167 40.2499C30.8005 40.514 30.275 40.9525 29.9048 41.5114C29.5347 42.0704 29.336 42.7254 29.3334 43.3958V43.7499C29.3334 44.855 28.8944 45.9148 28.113 46.6962C27.3316 47.4776 26.2718 47.9166 25.1667 47.9166C24.0616 47.9166 23.0018 47.4776 22.2204 46.6962C21.439 45.9148 21 44.855 21 43.7499V43.5624C20.9839 42.8728 20.7607 42.2041 20.3594 41.643C19.9582 41.082 19.3974 40.6547 18.75 40.4166C18.1217 40.1393 17.4246 40.0565 16.7488 40.1791C16.073 40.3016 15.4494 40.6238 14.9584 41.1041L14.8334 41.2291C14.4464 41.6165 13.9869 41.9238 13.481 42.1335C12.9752 42.3432 12.433 42.4511 11.8855 42.4511C11.3379 42.4511 10.7957 42.3432 10.2899 42.1335C9.78405 41.9238 9.32451 41.6165 8.93754 41.2291C8.55014 40.8421 8.24281 40.3826 8.03312 39.8768C7.82344 39.3709 7.71551 38.8287 7.71551 38.2812C7.71551 37.7336 7.82344 37.1914 8.03312 36.6856C8.24281 36.1798 8.55014 35.7202 8.93754 35.3332L9.06254 35.2082C9.54283 34.7173 9.86501 34.0936 9.98755 33.4178C10.1101 32.742 10.0274 32.045 9.75004 31.4166C9.48595 30.8004 9.04745 30.2749 8.48851 29.9047C7.92957 29.5346 7.2746 29.3359 6.60421 29.3333H6.25004C5.14497 29.3333 4.08516 28.8943 3.30376 28.1129C2.52236 27.3315 2.08337 26.2717 2.08337 25.1666C2.08337 24.0615 2.52236 23.0017 3.30376 22.2203C4.08516 21.4389 5.14497 20.9999 6.25004 20.9999H6.43754C7.12711 20.9838 7.79588 20.7606 8.35691 20.3593C8.91794 19.958 9.34528 19.3973 9.58337 18.7499C9.8607 18.1216 9.94342 17.4245 9.82088 16.7487C9.69834 16.0729 9.37616 15.4492 8.89587 14.9583L8.77087 14.8333C8.38347 14.4463 8.07614 13.9867 7.86646 13.4809C7.65677 12.9751 7.54885 12.4329 7.54885 11.8853C7.54885 11.3378 7.65677 10.7956 7.86646 10.2898C8.07614 9.78392 8.38347 9.32439 8.77087 8.93742C9.15784 8.55002 9.61738 8.24269 10.1232 8.033C10.629 7.82332 11.1712 7.71539 11.7188 7.71539C12.2664 7.71539 12.8085 7.82332 13.3144 8.033C13.8202 8.24269 14.2797 8.55002 14.6667 8.93742L14.7917 9.06242C15.2827 9.5427 15.9063 9.86489 16.5821 9.98743C17.258 10.11 17.955 10.0272 18.5834 9.74992H18.75C19.3662 9.48583 19.8917 9.04733 20.2619 8.48839C20.6321 7.92945 20.8307 7.27447 20.8334 6.60409V6.24992C20.8334 5.14485 21.2724 4.08504 22.0538 3.30364C22.8352 2.52224 23.895 2.08325 25 2.08325C26.1051 2.08325 27.1649 2.52224 27.9463 3.30364C28.7277 4.08504 29.1667 5.14485 29.1667 6.24992V6.43742C29.1694 7.10781 29.368 7.76278 29.7382 8.32172C30.1083 8.88066 30.6339 9.31916 31.25 9.58325C31.8784 9.86057 32.5754 9.9433 33.2513 9.82076C33.9271 9.69822 34.5507 9.37604 35.0417 8.89575L35.1667 8.77075C35.5537 8.38335 36.0132 8.07602 36.519 7.86634C37.0249 7.65665 37.5671 7.54872 38.1146 7.54872C38.6622 7.54872 39.2044 7.65665 39.7102 7.86634C40.216 8.07602 40.6756 8.38335 41.0625 8.77075C41.4499 9.15772 41.7573 9.61726 41.967 10.1231C42.1766 10.6289 42.2846 11.1711 42.2846 11.7187C42.2846 12.2662 42.1766 12.8084 41.967 13.3143C41.7573 13.8201 41.4499 14.2796 41.0625 14.6666L40.9375 14.7916C40.4573 15.2826 40.1351 15.9062 40.0125 16.582C39.89 17.2578 39.9727 17.9549 40.25 18.5833V18.7499C40.5141 19.3661 40.9526 19.8916 41.5116 20.2618C42.0705 20.6319 42.7255 20.8306 43.3959 20.8333H43.75C44.8551 20.8333 45.9149 21.2722 46.6963 22.0536C47.4777 22.835 47.9167 23.8948 47.9167 24.9999C47.9167 26.105 47.4777 27.1648 46.6963 27.9462C45.9149 28.7276 44.8551 29.1666 43.75 29.1666H43.5625C42.8922 29.1693 42.2372 29.3679 41.6782 29.7381C41.1193 30.1082 40.6808 30.6337 40.4167 31.2499Z" stroke="white" stroke-width="2" stroke-linecap="round" stroke-linejoin="round"/>
</svg>
