<svg width="50" height="50" viewBox="0 0 50 50" fill="none" xmlns="http://www.w3.org/2000/svg">
<path d="M25 31.25C28.4518 31.25 31.25 28.4518 31.25 25C31.25 21.5482 28.4518 18.75 25 18.75C21.5482 18.75 18.75 21.5482 18.75 25C18.75 28.4518 21.5482 31.25 25 31.25Z" stroke="white" stroke-width="2" stroke-linecap="round" stroke-linejoin="round"/>
<path d="M40.4167 31.25C40.1394 31.8784 40.0567 32.5754 40.1792 33.2513C40.3017 33.9271 40.6239 34.5507 41.1042 35.0417L41.2292 35.1667C41.6166 35.5537 41.9239 36.0132 42.1336 36.519C42.3433 37.0249 42.4512 37.5671 42.4512 38.1146C42.4512 38.6622 42.3433 39.2044 42.1336 39.7102C41.9239 40.216 41.6166 40.6756 41.2292 41.0625C40.8422 41.4499 40.3827 41.7573 39.8769 41.967C39.371 42.1766 38.8289 42.2846 38.2813 42.2846C37.7337 42.2846 37.1915 42.1766 36.6857 41.967C36.1799 41.7573 35.7203 41.4499 35.3334 41.0625L35.2084 40.9375C34.7174 40.4573 34.0938 40.1351 33.4179 40.0125C32.7421 39.89 32.0451 39.9727 31.4167 40.25C30.8005 40.5141 30.275 40.9526 29.9048 41.5116C29.5347 42.0705 29.336 42.7255 29.3334 43.3959V43.75C29.3334 44.8551 28.8944 45.9149 28.113 46.6963C27.3316 47.4777 26.2718 47.9167 25.1667 47.9167C24.0616 47.9167 23.0018 47.4777 22.2204 46.6963C21.439 45.9149 21 44.8551 21 43.75V43.5625C20.9839 42.873 20.7607 42.2042 20.3594 41.6432C19.9582 41.0821 19.3974 40.6548 18.75 40.4167C18.1217 40.1394 17.4246 40.0567 16.7488 40.1792C16.073 40.3017 15.4494 40.6239 14.9584 41.1042L14.8334 41.2292C14.4464 41.6166 13.9869 41.9239 13.481 42.1336C12.9752 42.3433 12.433 42.4512 11.8855 42.4512C11.3379 42.4512 10.7957 42.3433 10.2899 42.1336C9.78405 41.9239 9.32451 41.6166 8.93754 41.2292C8.55014 40.8422 8.24281 40.3827 8.03312 39.8769C7.82344 39.371 7.71551 38.8289 7.71551 38.2813C7.71551 37.7337 7.82344 37.1915 8.03312 36.6857C8.24281 36.1799 8.55014 35.7203 8.93754 35.3334L9.06254 35.2084C9.54283 34.7174 9.86501 34.0938 9.98755 33.4179C10.1101 32.7421 10.0274 32.0451 9.75004 31.4167C9.48595 30.8005 9.04745 30.275 8.48851 29.9048C7.92957 29.5347 7.2746 29.336 6.60421 29.3334H6.25004C5.14497 29.3334 4.08516 28.8944 3.30376 28.113C2.52236 27.3316 2.08337 26.2718 2.08337 25.1667C2.08337 24.0616 2.52236 23.0018 3.30376 22.2204C4.08516 21.439 5.14497 21 6.25004 21H6.43754C7.12711 20.9839 7.79588 20.7607 8.35691 20.3594C8.91794 19.9582 9.34528 19.3974 9.58337 18.75C9.8607 18.1217 9.94342 17.4246 9.82088 16.7488C9.69834 16.073 9.37616 15.4494 8.89587 14.9584L8.77087 14.8334C8.38347 14.4464 8.07614 13.9869 7.86646 13.481C7.65677 12.9752 7.54885 12.433 7.54885 11.8855C7.54885 11.3379 7.65677 10.7957 7.86646 10.2899C8.07614 9.78405 8.38347 9.32451 8.77087 8.93754C9.15784 8.55014 9.61738 8.24281 10.1232 8.03312C10.629 7.82344 11.1712 7.71551 11.7188 7.71551C12.2664 7.71551 12.8085 7.82344 13.3144 8.03312C13.8202 8.24281 14.2797 8.55014 14.6667 8.93754L14.7917 9.06254C15.2827 9.54283 15.9063 9.86501 16.5821 9.98755C17.258 10.1101 17.955 10.0274 18.5834 9.75004H18.75C19.3662 9.48595 19.8917 9.04745 20.2619 8.48851C20.6321 7.92957 20.8307 7.2746 20.8334 6.60421V6.25004C20.8334 5.14497 21.2724 4.08516 22.0538 3.30376C22.8352 2.52236 23.895 2.08337 25 2.08337C26.1051 2.08337 27.1649 2.52236 27.9463 3.30376C28.7277 4.08516 29.1667 5.14497 29.1667 6.25004V6.43754C29.1694 7.10793 29.368 7.76291 29.7382 8.32184C30.1083 8.88078 30.6339 9.31928 31.25 9.58337C31.8784 9.8607 32.5754 9.94342 33.2513 9.82088C33.9271 9.69834 34.5507 9.37616 35.0417 8.89587L35.1667 8.77087C35.5537 8.38347 36.0132 8.07614 36.519 7.86646C37.0249 7.65677 37.5671 7.54885 38.1146 7.54885C38.6622 7.54885 39.2044 7.65677 39.7102 7.86646C40.216 8.07614 40.6756 8.38347 41.0625 8.77087C41.4499 9.15784 41.7573 9.61738 41.967 10.1232C42.1766 10.629 42.2846 11.1712 42.2846 11.7188C42.2846 12.2664 42.1766 12.8085 41.967 13.3144C41.7573 13.8202 41.4499 14.2797 41.0625 14.6667L40.9375 14.7917C40.4573 15.2827 40.1351 15.9063 40.0125 16.5821C39.89 17.258 39.9727 17.955 40.25 18.5834V18.75C40.5141 19.3662 40.9526 19.8917 41.5116 20.2619C42.0705 20.6321 42.7255 20.8307 43.3959 20.8334H43.75C44.8551 20.8334 45.9149 21.2724 46.6963 22.0538C47.4777 22.8352 47.9167 23.895 47.9167 25C47.9167 26.1051 47.4777 27.1649 46.6963 27.9463C45.9149 28.7277 44.8551 29.1667 43.75 29.1667H43.5625C42.8922 29.1694 42.2372 29.368 41.6782 29.7382C41.1193 30.1083 40.6808 30.6339 40.4167 31.25Z" stroke="white" stroke-width="2" stroke-linecap="round" stroke-linejoin="round"/>
</svg>
