<svg width="50" height="50" viewBox="0 0 50 50" fill="none" xmlns="http://www.w3.org/2000/svg">
<path d="M25 31.25C28.4518 31.25 31.25 28.4518 31.25 25C31.25 21.5482 28.4518 18.75 25 18.75C21.5482 18.75 18.75 21.5482 18.75 25C18.75 28.4518 21.5482 31.25 25 31.25Z" stroke="white" stroke-width="2" stroke-linecap="round" stroke-linejoin="round"/>
<path d="M40.4167 31.2502C40.1393 31.8785 40.0566 32.5756 40.1792 33.2514C40.3017 33.9272 40.6239 34.5508 41.1042 35.0418L41.2292 35.1668C41.6166 35.5538 41.9239 36.0133 42.1336 36.5192C42.3433 37.025 42.4512 37.5672 42.4512 38.1147C42.4512 38.6623 42.3433 39.2045 42.1336 39.7103C41.9239 40.2162 41.6166 40.6757 41.2292 41.0627C40.8422 41.4501 40.3827 41.7574 39.8768 41.9671C39.371 42.1768 38.8288 42.2847 38.2813 42.2847C37.7337 42.2847 37.1915 42.1768 36.6857 41.9671C36.1798 41.7574 35.7203 41.4501 35.3333 41.0627L35.2083 40.9377C34.7173 40.4574 34.0937 40.1352 33.4179 40.0127C32.7421 39.8901 32.045 39.9728 31.4167 40.2502C30.8005 40.5142 30.275 40.9528 29.9048 41.5117C29.5347 42.0706 29.336 42.7256 29.3333 43.396V43.7502C29.3333 44.8552 28.8943 45.915 28.1129 46.6964C27.3315 47.4778 26.2717 47.9168 25.1667 47.9168C24.0616 47.9168 23.0018 47.4778 22.2204 46.6964C21.439 45.915 21 44.8552 21 43.7502V43.5627C20.9839 42.8731 20.7607 42.2043 20.3594 41.6433C19.9581 41.0823 19.3974 40.6549 18.75 40.4168C18.1216 40.1395 17.4246 40.0568 16.7488 40.1793C16.073 40.3019 15.4493 40.624 14.9583 41.1043L14.8333 41.2293C14.4464 41.6167 13.9868 41.9241 13.481 42.1337C12.9752 42.3434 12.433 42.4514 11.8854 42.4514C11.3379 42.4514 10.7957 42.3434 10.2898 42.1337C9.78401 41.9241 9.32447 41.6167 8.9375 41.2293C8.5501 40.8424 8.24277 40.3828 8.03309 39.877C7.8234 39.3712 7.71547 38.829 7.71547 38.2814C7.71547 37.7338 7.8234 37.1917 8.03309 36.6858C8.24277 36.18 8.5501 35.7205 8.9375 35.3335L9.0625 35.2085C9.54279 34.7175 9.86497 34.0939 9.98751 33.4181C10.1101 32.7422 10.0273 32.0452 9.75 31.4168C9.48591 30.8006 9.04741 30.2751 8.48847 29.905C7.92953 29.5348 7.27456 29.3362 6.60417 29.3335H6.25C5.14493 29.3335 4.08513 28.8945 3.30372 28.1131C2.52232 27.3317 2.08334 26.2719 2.08334 25.1668C2.08334 24.0618 2.52232 23.002 3.30372 22.2206C4.08513 21.4391 5.14493 21.0002 6.25 21.0002H6.4375C7.12707 20.984 7.79585 20.7608 8.35688 20.3596C8.91791 19.9583 9.34524 19.3975 9.58334 18.7502C9.86066 18.1218 9.94338 17.4248 9.82084 16.7489C9.69831 16.0731 9.37612 15.4495 8.89584 14.9585L8.77084 14.8335C8.38343 14.4465 8.0761 13.987 7.86642 13.4812C7.65674 12.9753 7.54881 12.4331 7.54881 11.8856C7.54881 11.338 7.65674 10.7958 7.86642 10.29C8.0761 9.78417 8.38343 9.32463 8.77084 8.93766C9.15781 8.55026 9.61734 8.24293 10.1232 8.03325C10.629 7.82356 11.1712 7.71563 11.7188 7.71563C12.2663 7.71563 12.8085 7.82356 13.3143 8.03325C13.8202 8.24293 14.2797 8.55026 14.6667 8.93766L14.7917 9.06266C15.2827 9.54295 15.9063 9.86513 16.5821 9.98767C17.2579 10.1102 17.955 10.0275 18.5833 9.75016H18.75C19.3662 9.48607 19.8917 9.04757 20.2619 8.48863C20.632 7.92969 20.8307 7.27472 20.8333 6.60433V6.25016C20.8333 5.14509 21.2723 4.08529 22.0537 3.30388C22.8351 2.52248 23.8949 2.0835 25 2.0835C26.1051 2.0835 27.1649 2.52248 27.9463 3.30388C28.7277 4.08529 29.1667 5.14509 29.1667 6.25016V6.43766C29.1693 7.10805 29.368 7.76303 29.7381 8.32197C30.1083 8.8809 30.6338 9.31941 31.25 9.5835C31.8784 9.86082 32.5754 9.94354 33.2512 9.82101C33.9271 9.69847 34.5507 9.37628 35.0417 8.896L35.1667 8.771C35.5536 8.38359 36.0132 8.07626 36.519 7.86658C37.0248 7.6569 37.567 7.54897 38.1146 7.54897C38.6621 7.54897 39.2043 7.6569 39.7102 7.86658C40.216 8.07626 40.6755 8.38359 41.0625 8.771C41.4499 9.15797 41.7572 9.6175 41.9669 10.1233C42.1766 10.6292 42.2845 11.1713 42.2845 11.7189C42.2845 12.2665 42.1766 12.8087 41.9669 13.3145C41.7572 13.8203 41.4499 14.2799 41.0625 14.6668L40.9375 14.7918C40.4572 15.2828 40.135 15.9064 40.0125 16.5823C39.89 17.2581 39.9727 17.9551 40.25 18.5835V18.7502C40.5141 19.3663 40.9526 19.8919 41.5115 20.262C42.0705 20.6322 42.7254 20.8308 43.3958 20.8335H43.75C44.8551 20.8335 45.9149 21.2725 46.6963 22.0539C47.4777 22.8353 47.9167 23.8951 47.9167 25.0002C47.9167 26.1052 47.4777 27.165 46.6963 27.9464C45.9149 28.7278 44.8551 29.1668 43.75 29.1668H43.5625C42.8921 29.1695 42.2371 29.3681 41.6782 29.7383C41.1193 30.1085 40.6808 30.634 40.4167 31.2502Z" stroke="white" stroke-width="2" stroke-linecap="round" stroke-linejoin="round"/>
</svg>
