<svg width="50" height="50" viewBox="0 0 50 50" fill="none" xmlns="http://www.w3.org/2000/svg">
<path d="M16.6667 39.5835V43.7502" stroke="white" stroke-width="2" stroke-linecap="round" stroke-linejoin="round"/>
<path d="M16.6667 27.0835V31.2502" stroke="white" stroke-width="2" stroke-linecap="round" stroke-linejoin="round"/>
<path d="M33.3333 39.5835V43.7502" stroke="white" stroke-width="2" stroke-linecap="round" stroke-linejoin="round"/>
<path d="M33.3333 27.0835V31.2502" stroke="white" stroke-width="2" stroke-linecap="round" stroke-linejoin="round"/>
<path d="M25 43.75V47.9167" stroke="white" stroke-width="2" stroke-linecap="round" stroke-linejoin="round"/>
<path d="M25 31.25V35.4167" stroke="white" stroke-width="2" stroke-linecap="round" stroke-linejoin="round"/>
<path d="M41.6667 34.5417C43.8568 33.5825 45.6502 31.8991 46.746 29.7741C47.8418 27.6491 48.1732 25.2117 47.6846 22.8713C47.196 20.5308 45.9171 18.4297 44.0626 16.9205C42.2081 15.4114 39.8909 14.5862 37.5 14.5834H34.875C34.2146 12.0261 32.956 9.66245 31.2027 7.68714C29.4495 5.71183 27.252 4.18146 24.7912 3.22218C22.3304 2.2629 19.6769 1.90217 17.0493 2.16973C14.4218 2.43728 11.8954 3.32546 9.67853 4.76106C7.46163 6.19666 5.61764 8.13856 4.29855 10.4267C2.97947 12.7149 2.22307 15.2837 2.09169 17.9216C1.96032 20.5595 2.45773 23.1908 3.54293 25.5987C4.62813 28.0066 6.27004 30.1221 8.33334 31.7709" stroke="white" stroke-width="2" stroke-linecap="round" stroke-linejoin="round"/>
</svg>
