<svg width="50" height="50" viewBox="0 0 50 50" fill="none" xmlns="http://www.w3.org/2000/svg">
<path d="M16.6666 39.5833V43.7499" stroke="white" stroke-width="2" stroke-linecap="round" stroke-linejoin="round"/>
<path d="M16.6666 27.0833V31.2499" stroke="white" stroke-width="2" stroke-linecap="round" stroke-linejoin="round"/>
<path d="M33.3334 39.5833V43.7499" stroke="white" stroke-width="2" stroke-linecap="round" stroke-linejoin="round"/>
<path d="M33.3334 27.0833V31.2499" stroke="white" stroke-width="2" stroke-linecap="round" stroke-linejoin="round"/>
<path d="M25 43.75V47.9167" stroke="white" stroke-width="2" stroke-linecap="round" stroke-linejoin="round"/>
<path d="M25 31.25V35.4167" stroke="white" stroke-width="2" stroke-linecap="round" stroke-linejoin="round"/>
<path d="M41.6667 34.5417C43.8568 33.5825 45.6502 31.8991 46.746 29.7741C47.8418 27.6491 48.1732 25.2117 47.6846 22.8713C47.1959 20.5308 45.9171 18.4297 44.0626 16.9205C42.2081 15.4114 39.8909 14.5862 37.5 14.5834H34.875C34.2146 12.0261 32.9559 9.66245 31.2027 7.68714C29.4495 5.71183 27.2519 4.18146 24.7912 3.22218C22.3304 2.2629 19.6769 1.90217 17.0493 2.16973C14.4218 2.43728 11.8954 3.32546 9.67852 4.76106C7.46161 6.19666 5.61762 8.13856 4.29854 10.4267C2.97946 12.7149 2.22306 15.2837 2.09168 17.9216C1.9603 20.5595 2.45771 23.1908 3.54291 25.5987C4.62811 28.0066 6.27003 30.1221 8.33332 31.7709" stroke="white" stroke-width="2" stroke-linecap="round" stroke-linejoin="round"/>
</svg>
