<svg width="89" height="82" viewBox="0 0 89 82" fill="none" xmlns="http://www.w3.org/2000/svg">
<path d="M29 65.3333V72" stroke="#658354" stroke-width="2" stroke-linecap="round" stroke-linejoin="round"/>
<path d="M29 45.3333V52" stroke="#658354" stroke-width="2" stroke-linecap="round" stroke-linejoin="round"/>
<path d="M58 65.3333V72" stroke="#658354" stroke-width="2" stroke-linecap="round" stroke-linejoin="round"/>
<path d="M58 45.3333V52" stroke="#658354" stroke-width="2" stroke-linecap="round" stroke-linejoin="round"/>
<path d="M43.5 72V78.6667" stroke="#658354" stroke-width="2" stroke-linecap="round" stroke-linejoin="round"/>
<path d="M43.5 52V58.6667" stroke="#658354" stroke-width="2" stroke-linecap="round" stroke-linejoin="round"/>
<path d="M72.5001 57.2667C76.3109 55.732 79.4315 53.0385 81.3382 49.6385C83.2448 46.2384 83.8215 42.3387 82.9713 38.594C82.1211 34.8492 79.8958 31.4874 76.669 29.0728C73.4422 26.6582 69.4103 25.3378 65.2501 25.3333H60.6826C59.5336 21.2417 57.3435 17.4598 54.2929 14.2993C51.2423 11.1388 47.4185 8.69026 43.1368 7.15541C38.855 5.62056 34.2379 5.04339 29.666 5.47148C25.094 5.89957 20.6982 7.32066 16.8408 9.61761C12.9833 11.9146 9.7748 15.0216 7.4796 18.6827C5.1844 22.3437 3.86826 26.4539 3.63966 30.6745C3.41107 34.8951 4.27656 39.1052 6.16481 42.9579C8.05306 46.8105 10.91 50.1953 14.5001 52.8333" stroke="#658354" stroke-width="2" stroke-linecap="round" stroke-linejoin="round"/>
<path d="M31 65.3333V72" stroke="#658354" stroke-width="2" stroke-linecap="round" stroke-linejoin="round"/>
<path d="M31 45.3333V52" stroke="#658354" stroke-width="2" stroke-linecap="round" stroke-linejoin="round"/>
<path d="M60 65.3333V72" stroke="#658354" stroke-width="2" stroke-linecap="round" stroke-linejoin="round"/>
<path d="M60 45.3333V52" stroke="#658354" stroke-width="2" stroke-linecap="round" stroke-linejoin="round"/>
<path d="M45.5 72V78.6667" stroke="#658354" stroke-width="2" stroke-linecap="round" stroke-linejoin="round"/>
<path d="M45.5 52V58.6667" stroke="#658354" stroke-width="2" stroke-linecap="round" stroke-linejoin="round"/>
<path d="M74.5001 57.2667C78.3109 55.732 81.4315 53.0385 83.3382 49.6385C85.2448 46.2384 85.8215 42.3387 84.9713 38.594C84.1211 34.8492 81.8958 31.4874 78.669 29.0728C75.4422 26.6582 71.4103 25.3378 67.2501 25.3333H62.6826C61.5336 21.2417 59.3435 17.4598 56.2929 14.2993C53.2423 11.1388 49.4185 8.69026 45.1368 7.15541C40.855 5.62056 36.2379 5.04339 31.666 5.47148C27.094 5.89957 22.6982 7.32066 18.8408 9.61761C14.9833 11.9146 11.7748 15.0216 9.4796 18.6827C7.1844 22.3437 5.86826 26.4539 5.63966 30.6745C5.41107 34.8951 6.27656 39.1052 8.16481 42.9579C10.0531 46.8105 12.91 50.1953 16.5001 52.8333" stroke="#658354" stroke-width="2" stroke-linecap="round" stroke-linejoin="round"/>
<path d="M30 63.3333V70" stroke="#658354" stroke-width="2" stroke-linecap="round" stroke-linejoin="round"/>
<path d="M30 43.3333V50" stroke="#658354" stroke-width="2" stroke-linecap="round" stroke-linejoin="round"/>
<path d="M59 63.3333V70" stroke="#658354" stroke-width="2" stroke-linecap="round" stroke-linejoin="round"/>
<path d="M59 43.3333V50" stroke="#658354" stroke-width="2" stroke-linecap="round" stroke-linejoin="round"/>
<path d="M44.5 70V76.6667" stroke="#658354" stroke-width="2" stroke-linecap="round" stroke-linejoin="round"/>
<path d="M44.5 50V56.6667" stroke="#658354" stroke-width="2" stroke-linecap="round" stroke-linejoin="round"/>
<path d="M73.5001 55.2667C77.3109 53.732 80.4315 51.0385 82.3382 47.6385C84.2448 44.2384 84.8215 40.3387 83.9713 36.594C83.1211 32.8492 80.8958 29.4874 77.669 27.0728C74.4422 24.6582 70.4103 23.3378 66.2501 23.3333H61.6826C60.5336 19.2417 58.3435 15.4598 55.2929 12.2993C52.2423 9.13884 48.4185 6.69026 44.1368 5.15541C39.855 3.62056 35.2379 3.04339 30.666 3.47148C26.094 3.89957 21.6982 5.32066 17.8408 7.61761C13.9833 9.91456 10.7748 13.0216 8.4796 16.6827C6.1844 20.3437 4.86826 24.4539 4.63966 28.6745C4.41107 32.8951 5.27656 37.1052 7.16481 40.9579C9.05306 44.8105 11.91 48.1953 15.5001 50.8333" stroke="#658354" stroke-width="2" stroke-linecap="round" stroke-linejoin="round"/>
</svg>
